<svg id="Calque_1" data-name="Calque 1" xmlns="http://www.w3.org/2000/svg" viewBox="0 0 179.27 328.48"><defs><style>.cls-1{fill:#fff;}</style></defs><path class="cls-1" d="M141.38,303.68c2.17-8.45,4.25-16.83,6.53-25.15.39-1.43,1.67-3.65,2.57-3.67,1.53,0,3.81,1,4.48,2.31a77.62,77.62,0,0,1,6.1,14.09c1.85,6.38,2.72,13,4.27,19.51.31,1.27,1.78,3.21,2.74,3.22,16.3.2,32.6.15,48.91.15-.15-6.31-2.71-9.38-8.54-9.94a71.41,71.41,0,0,0-12-.16c-3.77.27-7.5,1.16-11.81,1.87,0-2-.16-3.74,0-5.49,3.08-29.16,9.14-57.51,22.46-84,7.22-14.34,6.94-29.63,4.49-45-1.14-7.16-2.75-14.24-3.95-20.32,4.5.4,9.19,1.16,13.77.78.59,0,.67-6.1,1-9.37l-1.71.79c2.72,2.22,5.17,5,8.26,6.51,2.91,1.39,6.49,1.38,10,2,1.6-6.58.78-12.3-4.6-17.05-22.58-19.93-33.2-47.47-46-73.52-4.77-9.73,1-27.59,9.15-35,2.13-1.93,3.14-5.1,4.65-7.72.61-1.05.91-2.55,1.82-3.13,4.3-2.81,5.5-6.92,5.37-11.66-.11-3.8,0-7.67-.71-11.34a9,9,0,0,0-3.93-5.2c-1.86-1.14-4.44-1.43-6.72-1.49a142.73,142.73,0,0,0-45.85,6.14C145-5.92,139.77-1.56,136.93,5.28,133,14.76,128.79,24,129.3,34.94c.28,6-2.3,12-3.44,18.05-2.62,13.81-3.09,27.63-2.43,41.75.88,18.75-.21,37.6-.4,56.41-.33,33.25-10.2,64.3-22.59,94.6C92.3,265.67,79.07,282.14,62,295.35a3.62,3.62,0,0,0-1.53,2.49c3.74-.76,7.55-1.28,11.21-2.33a64,64,0,0,0,30.75-19.61c5.75-6.47,13.73-6.59,19.56-.22,5,5.47,7.28,11.94,5.66,19.35-1.35,6.16-3,12.25-4.73,19.13h15.32c5.83,0,11.66.06,17.5-.05,4.18-.08,6.66-2.73,6.87-6.53s-3.11-5-6.26-5C151.52,302.66,146.74,303.26,141.38,303.68Z" transform="translate(-60.42 14.31)"/></svg>